<svg width="24" height="24" viewBox="0 0 24 24" fill="none" xmlns="http://www.w3.org/2000/svg">
<path d="M21.3438 2.16261C21.0801 2.18179 20.8212 2.24366 20.5773 2.3458H20.574C20.3399 2.43862 19.2268 2.90686 17.5346 3.61661L11.4705 6.17056C7.11919 8.00244 2.8418 9.80638 2.8418 9.80638L2.89273 9.78667C2.89273 9.78667 2.59782 9.8836 2.28977 10.0947C2.09946 10.2158 1.9357 10.3743 1.80839 10.5605C1.65724 10.7823 1.53566 11.1216 1.58084 11.4723C1.65478 12.0654 2.03922 12.4211 2.31524 12.6175C2.59454 12.8162 2.86069 12.9091 2.86069 12.9091H2.86726L6.8785 14.2604C7.0584 14.8379 8.10085 18.2651 8.3514 19.0545C8.49926 19.526 8.64302 19.8209 8.82292 20.046C8.90999 20.161 9.01186 20.2571 9.13426 20.3343C9.19789 20.3714 9.26573 20.4006 9.33634 20.4214L9.29526 20.4116C9.30759 20.4148 9.31744 20.4247 9.32648 20.428C9.35934 20.437 9.38152 20.4403 9.42341 20.4469C10.0584 20.6391 10.5685 20.2448 10.5685 20.2448L10.5973 20.2218L12.9656 18.0654L16.9349 21.1106L17.0253 21.1492C17.8525 21.5123 18.6904 21.3102 19.1332 20.9537C19.5792 20.5947 19.7526 20.1355 19.7526 20.1355L19.7813 20.0616L22.8487 4.34772C22.9358 3.95998 22.9579 3.59689 22.8618 3.24448C22.7627 2.88782 22.5339 2.58107 22.2203 2.3844C21.9569 2.22431 21.6516 2.14704 21.3438 2.16261ZM21.2608 3.84662C21.2575 3.89837 21.2674 3.89262 21.2444 3.99202V4.00106L18.2057 19.5515C18.1926 19.5737 18.1704 19.6221 18.1096 19.6706C18.0456 19.7215 17.9946 19.7536 17.7276 19.6476L12.8728 15.9255L9.94012 18.5986L10.5562 14.6637L18.4883 7.27051C18.8153 6.96656 18.706 6.90249 18.706 6.90249C18.729 6.52954 18.2123 6.79323 18.2123 6.79323L8.2101 12.9896L8.20682 12.9731L3.41272 11.359V11.3557L3.4004 11.3532C3.4088 11.3504 3.41703 11.3471 3.42504 11.3434L3.45133 11.3302L3.4768 11.3212C3.4768 11.3212 7.75747 9.51723 12.1088 7.68535C14.2873 6.76777 16.4823 5.84361 18.1704 5.13058C19.1716 4.70917 20.1738 4.29022 21.177 3.87373C21.2444 3.84744 21.2123 3.84662 21.2608 3.84662Z" fill="#221F1F" stroke="#221F1F" stroke-width="0.3"/>
</svg>
