<svg xmlns="http://www.w3.org/2000/svg" xmlns:xlink="http://www.w3.org/1999/xlink" width="1080" zoomAndPan="magnify" viewBox="0 0 810 809.999993" height="1080" preserveAspectRatio="xMidYMid meet" version="1.0"><defs><g/><clipPath id="a74f6ba2b0"><path d="M 32.894531 32.894531 L 776.753906 32.894531 L 776.753906 776.753906 L 32.894531 776.753906 Z M 32.894531 32.894531 " clip-rule="nonzero"/></clipPath><clipPath id="62852c288b"><path d="M 404.996094 32.894531 C 199.488281 32.894531 32.894531 199.488281 32.894531 404.996094 C 32.894531 610.5 199.488281 777.097656 404.996094 777.097656 C 610.5 777.097656 777.097656 610.5 777.097656 404.996094 C 777.097656 199.488281 610.5 32.894531 404.996094 32.894531 Z M 404.996094 32.894531 " clip-rule="nonzero"/></clipPath><clipPath id="0adf7eab6d"><path d="M 22.441406 22.441406 L 787.554688 22.441406 L 787.554688 787.554688 L 22.441406 787.554688 Z M 22.441406 22.441406 " clip-rule="nonzero"/></clipPath><clipPath id="bf80ccb399"><path d="M 405 22.441406 C 193.71875 22.441406 22.441406 193.71875 22.441406 405 C 22.441406 616.28125 193.71875 787.558594 405 787.558594 C 616.28125 787.558594 787.554688 616.28125 787.554688 405 C 787.554688 193.71875 616.28125 22.441406 405 22.441406 Z M 405 22.441406 " clip-rule="nonzero"/></clipPath></defs><g clip-path="url(#a74f6ba2b0)"><g clip-path="url(#62852c288b)"><path stroke-linecap="butt" transform="matrix(0.708438, 0, 0, 0.708438, 32.892947, 32.892964)" fill="none" stroke-linejoin="miter" d="M 525.244307 0.00221234 C 235.158588 0.00221234 0.00223563 235.158565 0.00223563 525.244284 C 0.00223563 815.324488 235.158588 1050.486355 525.244307 1050.486355 C 815.324512 1050.486355 1050.486378 815.324488 1050.486378 525.244284 C 1050.486378 235.158565 815.324512 0.00221234 525.244307 0.00221234 Z M 525.244307 0.00221234 " stroke="#e4f526" stroke-width="31.76" stroke-opacity="1" stroke-miterlimit="4"/></g></g><g clip-path="url(#0adf7eab6d)"><g clip-path="url(#bf80ccb399)"><path stroke-linecap="butt" transform="matrix(0.708438, 0, 0, 0.708438, 22.443328, 22.443344)" fill="none" stroke-linejoin="miter" d="M 540.000041 -0.00273534 C 241.764794 -0.00273534 -0.00271205 241.764771 -0.00271205 540.000018 C -0.00271205 838.235265 241.764794 1079.997257 540.000041 1079.997257 C 838.235288 1079.997257 1079.99728 838.235265 1079.99728 540.000018 C 1079.99728 241.764771 838.235288 -0.00273534 540.000041 -0.00273534 Z M 540.000041 -0.00273534 " stroke="#3637d3" stroke-width="31.76" stroke-opacity="1" stroke-miterlimit="4"/></g></g><g fill="#ffffff" fill-opacity="1"><g transform="translate(126.361799, 441.374998)"><g><path d="M 15.3125 -28.71875 C 15.3125 -22.050781 16.796875 -17.035156 19.765625 -13.671875 C 22.734375 -10.316406 26.5 -8.640625 31.0625 -8.640625 C 35.613281 -8.640625 39.328125 -10.367188 42.203125 -13.828125 C 45.085938 -17.296875 46.53125 -22.257812 46.53125 -28.71875 C 46.53125 -35.175781 45.101562 -40.132812 42.25 -43.59375 C 39.394531 -47.0625 35.613281 -48.796875 30.90625 -48.796875 C 26.1875 -48.796875 22.40625 -47.066406 19.5625 -43.609375 C 16.726562 -40.160156 15.3125 -35.195312 15.3125 -28.71875 Z M 3.328125 -28.71875 C 3.328125 -38.5625 5.890625 -46.0625 11.015625 -51.21875 C 16.148438 -56.375 22.753906 -58.953125 30.828125 -58.953125 C 38.898438 -58.953125 45.53125 -56.40625 50.71875 -51.3125 C 55.914062 -46.21875 58.515625 -38.6875 58.515625 -28.71875 C 58.515625 -18.976562 55.960938 -11.5 50.859375 -6.28125 C 45.753906 -1.070312 39.113281 1.53125 30.9375 1.53125 C 23.15625 1.53125 16.609375 -0.9375 11.296875 -5.875 C 5.984375 -10.8125 3.328125 -18.425781 3.328125 -28.71875 Z M 3.328125 -28.71875 "/></g></g></g><g fill="#ffffff" fill-opacity="1"><g transform="translate(193.391855, 441.374998)"><g><path d="M 17.390625 -34.96875 L 31.453125 -34.96875 C 34.179688 -34.96875 36.273438 -35.523438 37.734375 -36.640625 C 39.191406 -37.765625 39.921875 -39.34375 39.921875 -41.375 C 39.921875 -43.40625 39.25 -44.941406 37.90625 -45.984375 C 36.570312 -47.023438 34.316406 -47.546875 31.140625 -47.546875 L 17.390625 -47.546875 Z M 17.390625 -9.921875 L 32.078125 -9.921875 C 35.015625 -9.921875 37.285156 -10.582031 38.890625 -11.90625 C 40.492188 -13.238281 41.296875 -15.378906 41.296875 -18.328125 C 41.296875 -20.460938 40.523438 -22.15625 38.984375 -23.40625 C 37.453125 -24.65625 35.34375 -25.28125 32.65625 -25.28125 L 17.390625 -25.28125 Z M 5.859375 -57.421875 L 33.75 -57.421875 C 39.507812 -57.421875 43.898438 -56.035156 46.921875 -53.265625 C 49.941406 -50.492188 51.453125 -46.984375 51.453125 -42.734375 C 51.453125 -36.878906 49.109375 -32.960938 44.421875 -30.984375 C 50.328125 -28.710938 53.28125 -24.0625 53.28125 -17.03125 C 53.28125 -14.738281 52.84375 -12.5625 51.96875 -10.5 C 51.101562 -8.445312 49.75 -6.539062 47.90625 -4.78125 C 46.070312 -3.03125 43.878906 -1.796875 41.328125 -1.078125 C 38.773438 -0.359375 35.050781 0 30.15625 0 L 5.859375 0 Z M 5.859375 -57.421875 "/></g></g></g><g fill="#ffffff" fill-opacity="1"><g transform="translate(254.992755, 441.374998)"><g><path d="M 17.859375 -10.390625 L 46.40625 -10.390625 L 46.40625 0 L 5.859375 0 L 5.859375 -57.421875 L 17.859375 -57.421875 Z M 17.859375 -10.390625 "/></g></g></g><g fill="#ffffff" fill-opacity="1"><g transform="translate(307.961685, 441.374998)"><g><path d="M 20.828125 -21.765625 L 35.46875 -21.765625 L 28.328125 -44.5 L 28.171875 -44.5 Z M 13.640625 0 L 0.984375 0 L 21.453125 -57.421875 L 35.3125 -57.421875 L 55.546875 0 L 42.5 0 L 38.828125 -11.84375 L 17.625 -11.84375 Z M 13.640625 0 "/></g></g></g><g fill="#ffffff" fill-opacity="1"><g transform="translate(369.679749, 441.374998)"><g><path d="M 17.625 -9.921875 L 29.296875 -9.921875 C 33.410156 -9.921875 36.613281 -11.640625 38.90625 -15.078125 C 41.195312 -18.515625 42.34375 -23.226562 42.34375 -29.21875 C 42.34375 -35.394531 41.285156 -39.992188 39.171875 -43.015625 C 37.066406 -46.035156 33.851562 -47.546875 29.53125 -47.546875 L 17.625 -47.546875 Z M 5.859375 -57.421875 L 31.21875 -57.421875 C 38.976562 -57.421875 44.8125 -54.898438 48.71875 -49.859375 C 52.625 -44.828125 54.578125 -38.234375 54.578125 -30.078125 C 54.578125 -21.066406 52.5 -13.800781 48.34375 -8.28125 C 44.1875 -2.757812 38.320312 0 30.75 0 L 5.859375 0 Z M 5.859375 -57.421875 "/></g></g></g><g fill="#ffffff" fill-opacity="1"><g transform="translate(432.960171, 441.374998)"><g><path d="M 52 -20.078125 C 52 -13.023438 50.035156 -7.660156 46.109375 -3.984375 C 42.191406 -0.304688 36.289062 1.53125 28.40625 1.53125 C 21.476562 1.53125 15.957031 -0.234375 11.84375 -3.765625 C 7.726562 -7.296875 5.671875 -12.523438 5.671875 -19.453125 L 5.671875 -57.421875 L 17.9375 -57.421875 L 17.9375 -20.15625 C 17.9375 -16.40625 18.859375 -13.546875 20.703125 -11.578125 C 22.554688 -9.617188 25.210938 -8.640625 28.671875 -8.640625 C 32.160156 -8.640625 34.878906 -9.550781 36.828125 -11.375 C 38.785156 -13.195312 39.765625 -15.941406 39.765625 -19.609375 L 39.765625 -57.421875 L 52 -57.421875 Z M 52 -20.078125 "/></g></g></g><g fill="#ffffff" fill-opacity="1"><g transform="translate(495.810937, 441.374998)"><g><path d="M 41.484375 -57.421875 L 52.65625 -57.421875 L 52.65625 0 L 40.671875 0 L 17.234375 -40.984375 L 17.078125 -40.984375 L 17.078125 0 L 5.859375 0 L 5.859375 -57.421875 L 18.515625 -57.421875 L 41.328125 -17.421875 L 41.484375 -17.421875 Z M 41.484375 -57.421875 "/></g></g></g><g fill="#ffffff" fill-opacity="1"><g transform="translate(559.521017, 441.374998)"><g><path d="M 15.3125 -28.71875 C 15.3125 -22.050781 16.796875 -17.035156 19.765625 -13.671875 C 22.734375 -10.316406 26.5 -8.640625 31.0625 -8.640625 C 35.613281 -8.640625 39.328125 -10.367188 42.203125 -13.828125 C 45.085938 -17.296875 46.53125 -22.257812 46.53125 -28.71875 C 46.53125 -35.175781 45.101562 -40.132812 42.25 -43.59375 C 39.394531 -47.0625 35.613281 -48.796875 30.90625 -48.796875 C 26.1875 -48.796875 22.40625 -47.066406 19.5625 -43.609375 C 16.726562 -40.160156 15.3125 -35.195312 15.3125 -28.71875 Z M 3.328125 -28.71875 C 3.328125 -38.5625 5.890625 -46.0625 11.015625 -51.21875 C 16.148438 -56.375 22.753906 -58.953125 30.828125 -58.953125 C 38.898438 -58.953125 45.53125 -56.40625 50.71875 -51.3125 C 55.914062 -46.21875 58.515625 -38.6875 58.515625 -28.71875 C 58.515625 -18.976562 55.960938 -11.5 50.859375 -6.28125 C 45.753906 -1.070312 39.113281 1.53125 30.9375 1.53125 C 23.15625 1.53125 16.609375 -0.9375 11.296875 -5.875 C 5.984375 -10.8125 3.328125 -18.425781 3.328125 -28.71875 Z M 3.328125 -28.71875 "/></g></g></g><g fill="#ffffff" fill-opacity="1"><g transform="translate(626.551073, 441.374998)"><g><path d="M 17.859375 0 L 5.859375 0 L 5.859375 -57.421875 L 17.859375 -57.421875 L 17.859375 -34.0625 L 39.8125 -57.421875 L 55.3125 -57.421875 L 31.875 -33.90625 L 56.6875 0 L 41.21875 0 L 23.484375 -25.203125 L 17.859375 -19.453125 Z M 17.859375 0 "/></g></g></g></svg>